HIERARCHY
ROOT Hips
{
	OFFSET 0.000000 0.000000 0.000000
	CHANNELS 6 Xposition Yposition Zposition Zrotation Yrotation Xrotation 
	JOINT LHipJoint
	{
		OFFSET 0.000000 0.000000 0.000000
		CHANNELS 3 Zrotation Yrotation Xrotation
		JOINT LeftUpLeg
		{
			OFFSET 1.363060 -1.794630 0.839290
			CHANNELS 3 Zrotation Yrotation Xrotation
			JOINT LeftLeg
			{
				OFFSET 2.448110 -6.726130 0.000000
				CHANNELS 3 Zrotation Yrotation Xrotation
				JOINT LeftFoot
				{
					OFFSET 2.562200 -7.039590 0.000000
					CHANNELS 3 Zrotation Yrotation Xrotation
					JOINT LeftToeBase
					{
						OFFSET 0.157640 -0.433110 2.322550
						CHANNELS 3 Zrotation Yrotation Xrotation
						End Site
						{
							OFFSET 0.000000 0.000000 0.000000
						}
					}
				}
			}
		}
	}
	JOINT RHipJoint
	{
		OFFSET 0.000000 0.000000 0.000000
		CHANNELS 3 Zrotation Yrotation Xrotation
		JOINT RightUpLeg
		{
			OFFSET -1.305520 -1.794630 0.839290
			CHANNELS 3 Zrotation Yrotation Xrotation
			JOINT RightLeg
			{
				OFFSET -2.542530 -6.985550 0.000000
				CHANNELS 3 Zrotation Yrotation Xrotation
				JOINT RightFoot
				{
					OFFSET -2.568260 -7.056230 0.000000
					CHANNELS 3 Zrotation Yrotation Xrotation
					JOINT RightToeBase
					{
						OFFSET -0.164730 -0.452590 2.363150
						CHANNELS 3 Zrotation Yrotation Xrotation
						End Site
						{
							OFFSET 0.000000 0.000000 0.000000
						}
					}
				}
			}
		}
	}
	JOINT LowerBack
	{
		OFFSET 0.000000 0.000000 0.000000
		CHANNELS 3 Zrotation Yrotation Xrotation
		JOINT Spine
		{
			OFFSET 0.028270 2.035590 -0.193380
			CHANNELS 3 Zrotation Yrotation Xrotation
			JOINT Spine1
			{
				OFFSET 0.056720 2.048850 -0.042750
				CHANNELS 3 Zrotation Yrotation Xrotation
				JOINT Neck
				{
					OFFSET 0.000000 0.000000 0.000000
					CHANNELS 3 Zrotation Yrotation Xrotation
					JOINT Neck1
					{
						OFFSET -0.054170 1.746240 0.172020
						CHANNELS 3 Zrotation Yrotation Xrotation
						JOINT Head
						{
							OFFSET 0.104070 1.761360 -0.123970
							CHANNELS 3 Zrotation Yrotation Xrotation
							End Site
							{
								OFFSET 0.000000 0.000000 0.000000
							}
						}
					}
				}
				JOINT LeftShoulder
				{
					OFFSET 0.000000 0.000000 0.000000
					CHANNELS 3 Zrotation Yrotation Xrotation
					JOINT LeftArm
					{
						OFFSET 3.362410 1.200890 -0.311210
						CHANNELS 3 Zrotation Yrotation Xrotation
						JOINT LeftForeArm
						{
							OFFSET 4.983000 -0.000000 -0.000000
							CHANNELS 3 Zrotation Yrotation Xrotation
							JOINT LeftHand
							{
								OFFSET 3.483560 -0.000000 -0.000000
								CHANNELS 3 Zrotation Yrotation Xrotation
								JOINT LeftFingerBase
								{
									OFFSET 0.000000 0.000000 0.000000
									CHANNELS 3 Zrotation Yrotation Xrotation
									JOINT LeftHandIndex1
									{
										OFFSET 0.715260 -0.000000 -0.000000
										CHANNELS 3 Zrotation Yrotation Xrotation
										End Site
										{
											OFFSET 0.000000 0.000000 0.000000
										}
									}
								}
								JOINT LThumb
								{
									OFFSET 0.000000 0.000000 0.000000
									CHANNELS 3 Zrotation Yrotation Xrotation
									End Site
									{
										OFFSET 0.000000 0.000000 0.000000
									}
								}
							}
						}
					}
				}
				JOINT RightShoulder
				{
					OFFSET 0.000000 0.000000 0.000000
					CHANNELS 3 Zrotation Yrotation Xrotation
					JOINT RightArm
					{
						OFFSET -3.136600 1.374050 -0.404650
						CHANNELS 3 Zrotation Yrotation Xrotation
						JOINT RightForeArm
						{
							OFFSET -5.241900 -0.000000 -0.000000
							CHANNELS 3 Zrotation Yrotation Xrotation
							JOINT RightHand
							{
								OFFSET -3.444170 -0.000000 -0.000000
								CHANNELS 3 Zrotation Yrotation Xrotation
								JOINT RightFingerBase
								{
									OFFSET 0.000000 0.000000 0.000000
									CHANNELS 3 Zrotation Yrotation Xrotation
									JOINT RightHandIndex1
									{
										OFFSET -0.622530 -0.000000 -0.000000
										CHANNELS 3 Zrotation Yrotation Xrotation
										End Site
										{
											OFFSET 0.000000 0.000000 0.000000
										}
									}
								}
								JOINT RThumb
								{
									OFFSET 0.000000 0.000000 0.000000
									CHANNELS 3 Zrotation Yrotation Xrotation
									End Site
									{
										OFFSET 0.000000 0.000000 0.000000
									}
								}
							}
						}
					}
				}
			}
		}
	}
}
MOTION
Frames: 12
Frame Time: 0.008333
6.545299 18.026232 11.602871 11.447951 -70.646193 -2.601701 -6.779566 2.327217 4.044062 -5.505971 -11.776563 -14.999641 0.767604 7.091093 21.706890 -1.192406 8.302811 -10.691243 0.003800 -0.397000 -1.090900 0.392751 -3.315440 2.896249 14.201848 12.964599 -13.621977 -2.791590 -8.212241 27.572097 2.314938 -13.419159 -13.304788 -0.535100 4.687400 -13.019000 -2.858807 -1.368293 -8.150503 -2.693111 -2.174305 6.223435 -0.467818 -1.188289 1.536361 -15.840338 -10.954220 -5.921690 21.450096 -16.540419 15.436229 5.940000 -7.125600 8.284700 -2.357110 -2.085930 -0.155499 -89.453886 16.150519 4.464022 15.489378 -17.777958 -2.338887 -0.729638 -1.039370 26.184553 9.275257 25.016266 4.224100 -7.125000 0.000000 0.000000 -21.802000 55.206200 -5.660600 5.062016 3.172024 -0.672483 79.439382 -12.605019 10.131621 -18.358407 24.193904 -4.560223 0.157408 -1.040945 23.455037 -20.318334 22.888145 -8.733400 7.125000 0.000000 0.000000 5.151000 -4.849500 4.716600 
6.541985 18.024965 11.597315 11.251883 -70.808004 -2.473035 -6.768785 2.322386 4.049313 -5.418899 -11.646107 -14.969602 0.777240 7.122006 21.766649 -1.161793 8.141387 -10.595538 0.003400 -0.377700 -1.037900 0.383766 -3.310377 2.880355 14.322049 12.811855 -13.578553 -2.779587 -8.188409 27.498420 2.266631 -13.186036 -13.170402 -0.520000 4.621400 -12.831900 -2.576797 -1.135249 -8.031444 -3.118358 -1.876306 6.256638 -0.706315 -1.042138 1.501766 -15.803407 -11.523247 -5.350516 21.960539 -17.529046 15.374493 5.984300 -7.595200 8.349000 -2.281230 -2.060021 -0.158384 -89.052306 16.378639 5.009544 15.512854 -17.826503 -2.357118 -0.741361 -1.060005 25.786714 9.285827 25.665565 4.333300 -7.125000 0.000000 0.000000 -22.207700 55.829700 -6.116800 5.073862 3.166413 -0.702461 79.898132 -12.955167 10.400477 -18.547877 24.438343 -4.660106 0.166006 -1.014869 22.284175 -19.816721 22.898546 -8.497400 7.125000 0.000000 0.000000 5.473500 -4.940300 5.005100 
6.537209 18.026622 11.594293 11.199001 -70.891189 -2.454572 -6.767875 2.328661 4.055477 -5.279293 -11.819061 -14.804685 0.788278 7.145022 21.829238 -0.935047 7.146815 -10.847088 0.109900 2.137400 5.885700 0.378985 -3.304963 2.871236 14.360247 12.501233 -13.599020 -2.763308 -8.164036 27.409512 2.183860 -12.805591 -13.003844 -0.481600 4.450200 -12.346700 -2.466784 -1.038157 -7.947598 -3.286494 -1.748853 6.252586 -0.831730 -0.982435 1.480399 -16.293207 -11.976296 -4.928939 22.662146 -18.363360 15.593502 6.183600 -7.982300 8.556400 -2.240075 -2.028339 -0.163802 -88.998710 16.596855 5.063011 15.522482 -17.855919 -2.367075 -0.763974 -1.092036 25.744225 9.207661 26.520946 4.431300 -7.125000 0.000000 0.000000 -22.873800 56.636000 -6.769700 5.089939 3.171972 -0.711075 80.014198 -13.148353 10.669382 -18.607590 24.511890 -4.692793 0.165577 -0.999126 21.558787 -19.384977 22.900307 -8.295200 7.125000 0.000000 0.000000 5.751100 -5.017700 5.253100 
6.530678 18.029838 11.590784 10.870528 -70.966640 -2.133155 -6.765969 2.342327 4.063011 -5.023109 -12.163574 -14.605820 0.788043 7.148382 21.835054 -0.754271 6.406811 -11.262268 0.524800 4.642700 12.892300 0.377254 -3.310733 2.876225 14.503712 12.360225 -13.651662 -2.759751 -8.154889 27.391722 2.104931 -12.488388 -13.026296 -0.432400 4.220000 -11.696300 -2.489885 -1.104344 -7.963828 -3.111655 -1.826638 6.287507 -0.828998 -1.025652 1.531911 -17.074426 -12.293483 -4.636758 23.379977 -18.963242 15.816210 6.455100 -8.264900 8.789100 -2.246533 -2.006308 -0.176709 -89.304419 16.751017 4.603379 15.500089 -17.831968 -2.359942 -0.794577 -1.097822 25.729991 9.642380 26.874463 4.707600 -7.125000 0.000000 0.000000 -22.669600 57.070500 -6.946900 5.105029 3.185184 -0.708742 79.952865 -13.057803 10.503448 -18.557568 24.438118 -4.662193 0.172865 -1.006582 21.825016 -19.698417 22.839455 -8.421300 7.125000 0.000000 0.000000 5.543200 -5.027200 5.060400 
6.526000 18.026134 11.586983 10.596393 -71.079898 -1.798165 -6.736673 2.316036 4.068830 -5.027981 -11.597752 -14.921667 0.785888 7.143598 21.793655 -0.890053 6.884209 -10.656018 0.332200 3.704200 10.246000 0.378906 -3.312817 2.876660 14.622752 12.626971 -13.664058 -2.766028 -8.153585 27.419027 2.114785 -12.564305 -13.176481 -0.423000 4.174300 -11.567500 -2.617737 -1.253597 -8.008267 -2.851995 -2.018375 6.262921 -0.740572 -1.120688 1.579622 -17.645275 -12.577009 -4.313149 23.725331 -19.453846 15.882765 6.588300 -8.519300 8.912500 -2.270349 -1.991463 -0.192997 -89.785810 16.945181 3.864412 15.539395 -17.888452 -2.367690 -0.790727 -1.107488 25.466875 9.713009 26.710585 4.716800 -7.125000 0.000000 0.000000 -22.490900 56.940300 -6.816400 5.114707 3.186960 -0.708405 79.862112 -12.945476 10.394891 -18.512679 24.368680 -4.632248 0.194949 -1.023166 22.246326 -20.455356 22.789644 -8.758100 7.125000 0.000000 0.000000 5.049200 -4.949200 4.613100 
6.520151 18.022333 11.584839 11.020121 -71.075988 -2.142777 -6.732092 2.292921 4.068653 -5.287543 -11.084282 -15.198402 0.785654 7.133726 21.767952 -1.013891 7.359400 -10.210427 0.115500 2.190700 6.033100 0.383289 -3.309836 2.876343 14.445867 12.898475 -13.632062 -2.771523 -8.167077 27.458447 2.137017 -12.684262 -13.286385 -0.419600 4.157900 -11.521300 -2.874586 -1.369382 -8.045428 -2.832256 -2.169826 6.212313 -0.613494 -1.198164 1.630479 -17.964643 -12.935316 -3.800627 23.838844 -20.042909 15.797891 6.602700 -8.842100 8.941000 -2.269982 -1.980863 -0.206729 -90.114033 17.189576 3.551713 15.585884 -17.948026 -2.382060 -0.789013 -1.107273 24.901189 10.074489 26.463596 4.856700 -7.125000 0.000000 0.000000 -21.945000 56.786700 -6.556800 5.128404 3.176159 -0.720805 79.942195 -12.999616 10.365095 -18.532298 24.386444 -4.639991 0.202436 -1.025357 22.281306 -20.648988 22.765748 -8.839900 7.125000 0.000000 0.000000 4.921700 -4.942400 4.496300 
6.514205 18.023308 11.585521 11.420092 -71.059180 -2.475619 -6.753925 2.295903 4.057727 -5.398745 -11.285235 -15.131716 0.780375 7.125395 21.771628 -1.033484 7.551850 -10.616254 0.077100 1.791600 4.930100 0.383094 -3.307277 2.882775 14.262442 12.617696 -13.807080 -2.772649 -8.183690 27.484747 2.047550 -12.312647 -13.242923 -0.404300 4.082200 -11.308000 -3.054368 -1.402182 -8.095823 -2.881968 -2.207765 6.190656 -0.552292 -1.223507 1.701551 -18.435855 -13.344356 -3.308949 24.149900 -20.765292 15.875760 6.686600 -9.213100 9.080300 -2.250928 -1.964713 -0.217088 -90.281187 17.431194 3.651164 15.622781 -17.996400 -2.400234 -0.807120 -1.113060 24.411651 10.589255 26.665191 5.151000 -7.125000 0.000000 0.000000 -21.544400 57.093500 -6.591300 5.138241 3.172025 -0.731921 79.990510 -13.149366 10.578257 -18.618214 24.493096 -4.683755 0.206656 -1.004023 21.868352 -20.425378 22.536184 -8.650300 7.125000 0.000000 0.000000 5.043300 -5.236800 4.580100 
6.508942 18.025549 11.584936 11.118179 -71.228182 -2.188159 -6.751219 2.302154 4.058776 -5.265205 -11.418498 -15.047892 0.771160 7.130570 21.771453 -1.106530 7.985644 -10.986312 0.035900 1.223600 3.364200 0.379779 -3.310070 2.885453 14.407550 12.382675 -13.925955 -2.774668 -8.182942 27.489826 1.991006 -12.061347 -13.167940 -0.413900 4.129800 -11.442000 -3.093900 -1.396352 -8.095523 -2.708112 -2.189021 6.222123 -0.528349 -1.216841 1.743066 -19.056615 -13.668533 -2.887815 24.683904 -21.407601 16.021720 6.871200 -9.533700 9.278600 -2.246070 -1.944525 -0.230933 -90.497729 17.646108 3.756030 15.675899 -18.067976 -2.423088 -0.809717 -1.148777 24.177320 10.383359 27.155816 5.134400 -7.125000 0.000000 0.000000 -22.122000 57.532000 -7.017500 5.135084 3.174256 -0.736190 79.841963 -13.243947 10.973846 -18.689930 24.583000 -4.719847 0.217402 -0.984209 21.710585 -20.455857 22.190228 -8.537300 7.125000 0.000000 0.000000 4.989900 -5.613000 4.495400 
6.505433 18.029936 11.582109 10.532650 -71.378668 -1.651464 -6.742977 2.313417 4.061443 -5.022759 -11.651134 -14.920874 0.764474 7.142071 21.783587 -1.166798 8.351063 -11.338401 0.023200 0.982300 2.700100 0.378277 -3.323438 2.886037 14.678476 12.669239 -13.798825 -2.775590 -8.166956 27.471951 2.051545 -12.312428 -13.200035 -0.418600 4.152800 -11.507000 -3.081628 -1.386857 -7.998419 -2.503655 -2.170983 6.239147 -0.495950 -1.204956 1.714201 -19.297889 -13.941568 -2.344869 24.985710 -21.921290 15.856402 6.941500 -9.815200 9.285400 -2.248931 -1.936067 -0.246226 -90.644934 17.835633 4.013864 15.714780 -18.111760 -2.439402 -0.802062 -1.169537 23.883054 10.226326 27.296341 5.078400 -7.125000 0.000000 0.000000 -22.399900 57.640000 -7.170900 5.131353 3.162241 -0.751446 79.820139 -13.313294 10.998985 -18.720840 24.625297 -4.737055 0.208994 -0.974411 22.021255 -20.336203 21.981408 -8.407300 7.125000 0.000000 0.000000 5.049200 -5.859100 4.525400 
6.505628 18.030033 11.583474 10.943798 -71.352195 -2.028883 -6.758184 2.320422 4.051315 -5.150253 -11.833042 -14.854319 0.775215 7.146909 21.825802 -1.162160 8.299692 -11.217383 0.026200 1.044900 2.872200 0.380975 -3.324088 2.887100 14.531445 12.707501 -13.801813 -2.770271 -8.164741 27.445315 2.097208 -12.482984 -13.138029 -0.442900 4.270100 -11.837900 -3.270237 -1.421838 -7.884082 -2.578728 -2.217390 6.190670 -0.410458 -1.230285 1.670515 -19.507871 -14.233175 -1.832634 25.181256 -22.478610 15.836204 6.973200 -10.112500 9.338400 -2.227810 -1.921495 -0.252846 -90.693378 18.054043 4.390940 15.737606 -18.134399 -2.453532 -0.814715 -1.167443 23.374580 10.756798 27.346566 5.360700 -7.125000 0.000000 0.000000 -21.871800 57.804200 -7.078200 5.138325 3.148886 -0.766765 79.948470 -13.531821 10.996066 -18.843746 24.792566 -4.806253 0.185092 -0.959522 22.281590 -19.851084 21.911127 -8.161900 7.125000 0.000000 0.000000 5.360800 -6.018000 4.790800 
6.503581 18.026719 11.587470 11.646023 -71.283720 -2.677612 -6.770861 2.318220 4.045699 -5.411522 -11.774290 -14.885934 0.790930 7.145324 21.853776 -1.129300 8.026337 -10.728023 0.057700 1.549500 4.262100 0.384898 -3.316544 2.889593 14.255700 12.548750 -13.866138 -2.765291 -8.174457 27.442557 2.072161 -12.390329 -13.157676 -0.423500 4.177000 -11.575100 -3.530579 -1.507852 -7.855857 -2.692589 -2.328073 6.162880 -0.324186 -1.293652 1.703949 -20.061586 -14.514535 -1.363906 25.692127 -23.086963 15.946835 7.148500 -10.425100 9.526100 -2.197240 -1.897717 -0.258490 -90.789050 18.289505 4.744541 15.746892 -18.139721 -2.464562 -0.837418 -1.164422 22.807934 11.477411 27.462622 5.756900 -7.125000 0.000000 0.000000 -21.182700 58.075300 -6.981300 5.144235 3.147724 -0.772912 79.956668 -13.797951 11.483818 -19.029718 25.038487 -4.911843 0.167166 -0.954105 22.342446 -19.500027 22.122152 -8.073800 7.125000 0.000000 0.000000 5.609800 -5.854700 5.033000 
6.499390 18.026622 11.591954 11.411043 -71.329479 -2.405529 -6.771477 2.320318 4.042915 -5.320997 -11.896378 -14.840111 0.786681 7.133631 21.816834 -1.153820 8.108775 -10.614970 0.116500 2.200900 6.061200 0.379372 -3.319511 2.896930 14.316369 12.322363 -14.028004 -2.776294 -8.194638 27.512884 1.947550 -11.894603 -13.201076 -0.350700 3.804800 -10.528100 -3.414735 -1.542828 -7.953204 -2.731555 -2.374666 6.204387 -0.419034 -1.322395 1.820692 -20.322502 -14.888016 -0.963657 26.017055 -23.768378 15.925149 7.196300 -10.769300 9.656300 -2.177373 -1.890863 -0.268163 -90.728346 18.423578 5.352471 15.690754 -18.046300 -2.450512 -0.842866 -1.162862 22.185937 11.819360 27.412621 5.927700 -7.125000 0.000000 0.000000 -20.772200 58.103100 -6.852300 5.151608 3.151677 -0.785893 80.065764 -13.801185 11.708180 -19.063366 25.075675 -4.934042 0.152015 -0.956849 22.552310 -19.290319 22.244717 -8.021200 7.125000 0.000000 0.000000 5.757800 -5.754800 5.178300 
